<svg width="43" height="40" viewBox="0 0 43 40" fill="none"
    xmlns="http://www.w3.org/2000/svg">
    <path d="M20.8656 3.94154C20.679 3.50122 20.3689 2.88945 19.913 2.22803C19.4121 1.50142 18.7292 0.706018 17.8297 0.00732843C18.2624 -0.0114222 18.6767 0.00695636 19.0599 0.0493587C19.3428 0.325854 19.594 0.626703 19.8132 0.935564C20.4239 1.79562 20.7684 2.69177 20.859 3.23378C20.8634 3.2599 20.8729 3.28426 20.8866 3.30617C20.9004 3.28426 20.9099 3.2599 20.9143 3.23378C21.0048 2.69177 21.3494 1.79562 21.96 0.935564C22.1793 0.626703 22.4305 0.325854 22.7134 0.0493587C23.0966 0.00695636 23.5109 -0.0114222 23.9435 0.00732843C23.0441 0.706018 22.3612 1.50142 21.8603 2.22803C21.4044 2.88945 21.0943 3.50122 20.9077 3.94154V4.0432C20.9009 4.02637 20.8939 4.00923 20.8866 3.99181C20.8794 4.00923 20.8724 4.02637 20.8656 4.0432V3.94154Z" fill="#fff"></path>
    <path d="M20.8866 0.488128C20.6166 0.376188 20.2509 0.26047 19.8174 0.169813C19.9697 0.346018 20.1101 0.526585 20.239 0.708042C20.4888 1.05985 20.6976 1.41894 20.8656 1.7622V1.84983C20.8725 1.83514 20.8795 1.82041 20.8866 1.80565C20.8937 1.82041 20.9008 1.83514 20.9077 1.84983V1.7622C21.0757 1.41894 21.2845 1.05985 21.5343 0.708042C21.6631 0.526585 21.8036 0.346018 21.9558 0.169813C21.5224 0.26047 21.1566 0.376188 20.8866 0.488128Z" fill="#fff"></path>
    <path d="M19.4838 2.4507C18.9362 1.65628 18.1698 0.787596 17.1409 0.0686505C16.9164 0.0991804 16.689 0.140733 16.4602 0.194957C17.2448 0.595443 17.8878 1.20013 18.4421 1.81862C18.7426 2.15398 19.0249 2.50286 19.2907 2.83128C19.4034 2.97054 19.5132 3.10621 19.62 3.23552C19.8913 3.56377 20.1439 3.85131 20.3901 4.07659C20.2158 3.66822 19.9224 3.08691 19.4838 2.4507Z" fill="#fff"></path>
    <path d="M18.0474 2.0849C17.3976 1.35983 16.6762 0.718104 15.7978 0.388012C15.507 0.489362 15.2165 0.613521 14.9296 0.763824C15.7125 0.911239 16.3901 1.33218 16.9767 1.8093C17.4002 2.15367 17.7942 2.54334 18.1512 2.89637C18.2876 3.03122 18.4186 3.16081 18.5438 3.28039C18.7746 3.50097 18.9854 3.6882 19.1818 3.82709C19.1922 3.83444 19.2025 3.84162 19.2127 3.84862C19.334 3.86671 19.4603 3.89423 19.593 3.93139C19.4662 3.79025 19.34 3.64122 19.2137 3.48831C19.1009 3.35188 18.9879 3.21217 18.8734 3.07063C18.6107 2.74596 18.3401 2.4116 18.0474 2.0849Z" fill="#fff"></path>
    <path d="M20.8866 25.946C20.8938 25.9715 20.9008 25.9972 20.9077 26.0228C20.9077 25.9739 20.9077 25.9236 20.9077 25.8722C21.0116 25.5155 21.1416 25.1652 21.2852 24.8208C21.463 24.3945 21.6631 23.9741 21.8622 23.5607L21.9248 23.4307C22.1033 23.0607 22.2789 22.6964 22.4383 22.3326C23.1276 20.7602 23.488 19.2567 22.3835 17.6403C21.935 17.7788 21.4037 17.84 20.8866 17.8445C20.3696 17.84 19.8383 17.7788 19.3897 17.6403C18.2853 19.2567 18.6457 20.7602 19.3349 22.3326C19.4944 22.6964 19.67 23.0607 19.8485 23.4307L19.9111 23.5607C20.1101 23.9741 20.3103 24.3945 20.4881 24.8208C20.6317 25.1652 20.7617 25.5155 20.8656 25.8722C20.8656 25.9236 20.8656 25.9739 20.8656 26.0228C20.8725 25.9972 20.8795 25.9715 20.8866 25.946Z" fill="#fff"></path>
    <path d="M18.93 17.4629C17.7438 19.2354 18.1667 20.8879 18.8676 22.4868C19.0301 22.8577 19.2091 23.2287 19.387 23.5979L19.4497 23.7279C19.6488 24.1413 19.8447 24.553 20.0179 24.9684C20.2114 25.4323 20.375 25.8971 20.4817 26.367C20.1825 25.8598 19.8485 25.4226 19.4876 25.0361C19.3459 24.7597 19.1845 24.4807 19.0146 24.2011C18.8445 23.9212 18.6658 23.6405 18.4862 23.3585C18.1121 22.771 17.7341 22.1773 17.4219 21.5716C16.9624 20.6799 16.6695 19.803 16.761 18.9571C16.8413 18.2141 17.2209 17.4725 18.1005 16.7508C18.2655 17.0491 18.5591 17.2862 18.93 17.4629Z" fill="#fff"></path>
    <path d="M16.2631 18.9166C16.3625 17.998 16.8616 17.1085 17.9575 16.2776C17.9525 16.2164 17.952 16.1534 17.9562 16.0887C17.9913 16.0495 18.0705 16.0016 18.2483 15.9524C18.425 15.9036 18.6383 15.869 18.8849 15.829C18.9662 15.8158 19.051 15.802 19.1394 15.787C19.4817 15.7286 19.8613 15.6526 20.1995 15.5139C20.4584 15.4077 20.7011 15.2615 20.8866 15.053C21.0722 15.2615 21.3148 15.4077 21.5737 15.5139C21.912 15.6526 22.2916 15.7286 22.6339 15.787C22.7223 15.802 22.8071 15.8158 22.8884 15.829C23.135 15.869 23.3482 15.9036 23.525 15.9524C23.7028 16.0016 23.782 16.0495 23.8171 16.0887C23.8213 16.1534 23.8208 16.2164 23.8158 16.2776C24.9117 17.1085 25.4108 17.998 25.5101 18.9166C25.6136 19.8726 25.2805 20.8315 24.8079 21.7486C24.4872 22.3709 24.0911 22.9931 23.7115 23.5895C23.6232 23.7282 23.5355 23.866 23.4501 24.0015C24.1568 23.4728 24.9201 23.0375 25.6981 22.5939L25.7923 22.5401C26.5863 20.7586 26.652 19.3537 26.3609 18.233C26.0143 16.8988 25.1545 15.9362 24.3335 15.1978C24.3317 15.1997 24.3299 15.2016 24.3282 15.2034C24.3243 15.2074 24.3206 15.2113 24.3169 15.2151C24.2502 15.2833 24.1896 15.3383 24.1399 15.3788C24.1126 15.401 24.0849 15.4218 24.0592 15.4392C24.0412 15.4511 24.0232 15.4623 24.0032 15.4733C23.9619 15.4968 23.9139 15.5156 23.8652 15.5277C23.8216 15.5387 23.7754 15.5472 23.7261 15.5533C23.7096 15.5483 23.6931 15.5436 23.6768 15.5391C23.4677 15.4813 23.2104 15.4396 22.9557 15.3984C22.88 15.3861 22.8042 15.3739 22.7303 15.3613C22.3932 15.3038 22.0658 15.2358 21.7874 15.1217C21.5196 15.0118 21.3109 14.8648 21.1833 14.6536L21.3406 13.7522C21.3896 13.4719 21.555 13.2162 21.8183 13.0482C21.8447 13.0313 21.8713 13.0145 21.8979 12.9975L21.9024 12.9947C22.2631 12.7653 22.6383 12.5268 23.0081 12.1529C23.1797 11.9794 23.2585 11.7533 23.2585 11.5247C22.9875 11.7503 22.6264 11.8763 22.2508 11.8763H19.5225C19.1469 11.8763 18.7858 11.7503 18.5148 11.5247C18.5148 11.7533 18.5936 11.9794 18.7652 12.1529C19.135 12.5268 19.5102 12.7653 19.8709 12.9947L19.8723 12.9956C19.8999 13.0131 19.9275 13.0307 19.955 13.0482C20.2183 13.2162 20.3837 13.4719 20.4327 13.7522L20.59 14.6536C20.4624 14.8648 20.2537 15.0118 19.9858 15.1217C19.7075 15.2358 19.3801 15.3038 19.043 15.3613C18.969 15.3739 18.8935 15.3861 18.8178 15.3984C18.5631 15.4396 18.3056 15.4813 18.0965 15.5391C18.0802 15.5436 18.0637 15.5483 18.0472 15.5533C17.9979 15.5472 17.9517 15.5387 17.9081 15.5277C17.8594 15.5156 17.8114 15.4968 17.7701 15.4733C17.7501 15.4623 17.7321 15.4511 17.7141 15.4392C17.6884 15.4218 17.6607 15.401 17.6334 15.3788C17.5837 15.3383 17.5231 15.2833 17.4564 15.2151C17.451 15.2095 17.4454 15.2038 17.4397 15.1978C16.6188 15.9362 15.759 16.8988 15.4124 18.233C15.1213 19.3537 15.187 20.7586 15.9809 22.5401L16.0752 22.5939C16.8532 23.0375 17.6165 23.4728 18.3231 24.0015C18.2378 23.866 18.1504 23.7287 18.0621 23.59C17.6825 22.9936 17.2861 22.3709 16.9654 21.7486C16.4928 20.8315 16.1597 19.8726 16.2631 18.9166Z" fill="#fff"></path>
    <path d="M17.1442 14.8391C16.2776 15.6088 15.3095 16.6562 14.9246 18.1376C14.6403 19.2321 14.6787 20.5456 15.2837 22.1377C14.6695 21.7762 14.0548 21.3883 13.46 20.9249C13.2893 20.4618 13.2071 20.0298 13.1932 19.6259C13.158 18.6076 13.5549 17.7398 14.1147 16.97C14.5566 16.3623 15.0898 15.8278 15.5887 15.3277C15.7272 15.1889 15.8633 15.0525 15.9938 14.9182C16.269 14.6348 16.522 14.3576 16.7139 14.086L16.7434 14.0866C16.8194 14.289 16.9144 14.4819 17.0264 14.6624C17.0657 14.7256 17.1053 14.7845 17.1442 14.8391Z" fill="#fff"></path>
    <path d="M16.3248 13.8054C16.443 13.6301 16.5216 13.4704 16.5598 13.3222C16.5366 13.1098 16.5356 12.8954 16.557 12.6804C16.575 12.5008 16.6027 12.2697 16.6194 12.1341L16.4737 12.0242C16.4389 11.9978 16.4047 11.9714 16.3711 11.9449C16.3586 11.9835 16.3445 12.0231 16.3287 12.0635C16.237 12.2992 16.0852 12.5791 15.8585 12.8977C15.405 13.535 14.6448 14.3372 13.4399 15.2639C11.9963 16.3743 11.519 17.4802 11.5362 18.4606C11.5399 18.6706 11.5663 18.8764 11.6116 19.0769C11.9827 19.5596 12.3744 19.9784 12.7798 20.3505C12.7294 20.1068 12.7014 19.8697 12.6934 19.6389C12.6543 18.5078 13.0979 17.5551 13.6918 16.7385C14.156 16.1001 14.7222 15.5329 15.224 15.0301C15.3589 14.895 15.4891 14.7645 15.6114 14.6386C15.9045 14.3369 16.1513 14.0628 16.3248 13.8054Z" fill="#fff"></path>
    <path d="M15.9418 11.5698C15.9393 11.6481 15.9168 11.7658 15.855 11.9247C15.7778 12.1231 15.6442 12.3731 15.433 12.6698C15.0108 13.2632 14.2856 14.0337 13.1082 14.9393C11.6668 16.048 11.0875 17.193 11.0391 18.2619C10.8608 17.9856 10.6972 17.7085 10.5477 17.4312C10.5551 17.2495 10.5758 17.0688 10.6103 16.8894C10.818 15.8098 11.5319 14.7497 12.9426 13.788C14.1496 12.9653 14.8368 12.1946 15.2349 11.6087C15.3603 11.4241 15.4566 11.2586 15.5311 11.1166C15.6513 11.2685 15.7876 11.4199 15.9418 11.5698Z" fill="#fff"></path>
    <path d="M15.1763 10.7323C15.1895 10.7034 15.2014 10.6764 15.2122 10.6514C15.0691 10.4071 14.9631 10.1639 14.8868 9.92573C14.7272 10.1279 14.5141 10.3682 14.2417 10.6392C13.6858 11.192 12.8733 11.8824 11.7384 12.6523C10.4433 13.5309 9.9209 14.6717 9.76593 15.6347C9.8776 15.967 10.0074 16.3011 10.1565 16.6359C10.4308 15.4977 11.2182 14.4118 12.6337 13.4469C13.7922 12.6572 14.4379 11.9274 14.8042 11.3883C14.9875 11.1186 15.1021 10.8948 15.1763 10.7323Z" fill="#fff"></path>
    <path d="M14.7457 9.28113C14.6537 9.46136 14.3858 9.83586 13.8648 10.354C13.3316 10.8844 12.5426 11.556 11.4304 12.3106C10.3878 13.0178 9.80243 13.8789 9.49837 14.7052C9.31625 13.9482 9.22392 13.2064 9.20508 12.494C9.48047 11.8824 10.2695 10.9397 11.9863 10.2408C13.1107 9.78304 13.9343 9.24079 14.4982 8.75727C14.5809 8.68636 14.6584 8.61638 14.7307 8.54781C14.7129 8.77674 14.7142 9.02318 14.7457 9.28113Z" fill="#fff"></path>
    <path d="M14.1468 8.4487C14.5555 8.09827 14.8009 7.79548 14.9182 7.60462C14.9687 7.44587 15.0286 7.28778 15.0975 7.1308C14.9642 7.0807 14.837 7.02705 14.7156 6.97017C14.2649 7.30262 13.4451 7.81421 11.7614 8.39538C10.8308 8.7166 10.2601 9.20065 9.93055 9.73459C9.63703 10.2102 9.52807 10.7368 9.54154 11.2426C10.044 10.7544 10.7692 10.2571 11.7738 9.84809C12.8458 9.4117 13.6225 8.89818 14.1468 8.4487Z" fill="#fff"></path>
    <path d="M15.2935 6.7317C13.7735 6.15934 13.1698 5.0903 13.1543 4.13804C13.1379 3.12654 13.7648 2.3247 14.5903 2.23372C14.9595 2.19302 15.3332 2.35509 15.8785 2.75672C16.1365 2.94677 16.4185 3.17897 16.746 3.44857L16.7834 3.47937C17.0528 3.70121 17.3505 3.94561 17.6836 4.2058C17.5394 4.29965 17.3991 4.40552 17.2583 4.51699C16.9185 4.03032 16.0085 3.53378 14.2228 3.63638C14.085 3.6443 13.9807 3.74762 13.9898 3.86715C13.999 3.98668 14.118 4.07717 14.2558 4.06925C16.108 3.96283 16.7297 4.53401 16.8788 4.8266C16.856 4.84601 16.8334 4.8655 16.811 4.88507C16.4053 4.78054 15.9117 4.75922 15.4464 4.78224C14.9242 4.80807 14.4062 4.89146 14.0364 4.99841C13.9054 5.03629 13.8346 5.15913 13.8783 5.27278C13.9219 5.38643 14.0635 5.44785 14.1945 5.40997C14.515 5.31728 14.9882 5.23943 15.4749 5.21535C15.8108 5.19874 16.1386 5.20853 16.4188 5.25088C15.9529 5.71639 15.5742 6.21568 15.2935 6.7317Z" fill="#fff"></path>
    <path d="M17.1276 3.16468C17.4266 3.4109 17.7557 3.68103 18.1277 3.96857C18.1807 3.94695 18.2347 3.92746 18.2898 3.91034C18.3548 3.89016 18.4202 3.8734 18.4865 3.86011C18.3829 3.76928 18.2786 3.67235 18.1735 3.57198C18.0371 3.44157 17.8992 3.30524 17.7588 3.16634C17.4072 2.81869 17.0392 2.45467 16.6348 2.1258C16.4211 1.95199 16.1937 1.78679 15.9544 1.64311C14.972 1.05346 13.7225 1.41373 12.9364 2.24727C11.6381 3.62385 12.0926 4.73314 12.5354 5.73214C11.9888 5.80176 11.4088 6.19549 10.8885 6.83333C11.2493 6.64382 11.624 6.50327 11.988 6.40109C12.5515 6.24289 13.0971 6.17434 13.5395 6.15969C12.938 5.55289 12.6654 4.82798 12.6543 4.14415C12.6361 3.02391 13.3392 1.9343 14.5273 1.80336C15.1275 1.7372 15.6503 2.01959 16.2021 2.42601C16.471 2.62406 16.7622 2.86384 17.0847 3.1294L17.1276 3.16468Z" fill="#fff"></path>
    <path d="M12.142 6.81384C11.7784 6.9159 11.4087 7.05821 11.0593 7.25204C10.4365 7.59754 10.0133 8.2068 9.77087 8.8765C9.71643 9.02686 9.66516 9.18134 9.6174 9.33966C10.0178 8.78977 10.6485 8.31262 11.5765 7.99229C13.0566 7.48139 13.8305 7.03321 14.2666 6.72941C14.2013 6.6895 14.1381 6.64852 14.0771 6.60657C13.6773 6.56559 12.9335 6.59164 12.142 6.81384Z" fill="#fff"></path>
    <path d="M19.9516 8.04929L19.1345 10.4972C19.3601 9.80952 19.2859 9.14556 19.1887 8.68572C18.8537 8.71511 18.6093 8.69305 18.3789 8.64203C17.7712 8.50742 17.3659 8.04049 16.9799 7.59586C16.9225 7.52974 16.8656 7.46409 16.8084 7.40013C16.73 7.3123 16.638 7.22112 16.5285 7.12114C16.7049 7.14882 16.8774 7.17413 17.0466 7.19896C18.093 7.35251 19.0141 7.48766 19.9516 8.04929Z" fill="#fff"></path>
    <path d="M19.1345 10.4972C19.1314 10.5065 19.1283 10.5158 19.1252 10.525L19.1345 10.4972Z" fill="#fff"></path>
    <path d="M22.2895 2.4507C22.8371 1.65628 23.6035 0.787596 24.6324 0.0686505C24.8569 0.0991804 25.0843 0.140733 25.3131 0.194957C24.5285 0.595443 23.8855 1.20013 23.3312 1.81862C23.0307 2.15398 22.7484 2.50286 22.4826 2.83128C22.3699 2.97054 22.2601 3.10621 22.1533 3.23552C21.882 3.56377 21.6294 3.85131 21.3832 4.07659C21.5575 3.66822 21.8509 3.08691 22.2895 2.4507Z" fill="#fff"></path>
    <path d="M23.7259 2.0849C24.3757 1.35983 25.0971 0.718104 25.9755 0.388012C26.2663 0.489362 26.5568 0.613521 26.8437 0.763824C26.0608 0.911239 25.3832 1.33218 24.7965 1.8093C24.3731 2.15367 23.9791 2.54334 23.6221 2.89637C23.4857 3.03122 23.3546 3.16081 23.2295 3.28039C22.9987 3.50097 22.7879 3.6882 22.5915 3.82709C22.5811 3.83444 22.5708 3.84162 22.5606 3.84862C22.4392 3.86671 22.3129 3.89423 22.1803 3.93139C22.3071 3.79025 22.4332 3.64122 22.5596 3.48831C22.6724 3.35188 22.7854 3.21219 22.8999 3.07065C23.1626 2.74598 23.4332 2.4116 23.7259 2.0849Z" fill="#fff"></path>
    <path d="M22.8433 17.4629C24.0295 19.2354 23.6066 20.8879 22.9057 22.4868C22.7432 22.8577 22.5642 23.2287 22.3863 23.5979L22.3236 23.7279C22.1245 24.1413 21.9286 24.553 21.7554 24.9684C21.5619 25.4323 21.3983 25.8971 21.2916 26.367C21.5908 25.8598 21.9248 25.4226 22.2857 25.0361C22.4274 24.7597 22.5888 24.4807 22.7587 24.2011C22.9288 23.9212 23.1075 23.6405 23.2871 23.3585C23.6612 22.771 24.0392 22.1773 24.3514 21.5716C24.8109 20.6799 25.1038 19.803 25.0123 18.9571C24.932 18.2141 24.5523 17.4725 23.6728 16.7508C23.5078 17.0491 23.2142 17.2862 22.8433 17.4629Z" fill="#fff"></path>
    <path d="M24.6291 14.8391C25.4957 15.6088 26.4638 16.6562 26.8487 18.1376C27.133 19.2321 27.0946 20.5456 26.4896 22.1377C27.1038 21.7762 27.7185 21.3883 28.3133 20.9249C28.484 20.4618 28.5661 20.0298 28.5801 19.6259C28.6153 18.6076 28.2184 17.7398 27.6586 16.97C27.2167 16.3623 26.6835 15.8278 26.1846 15.3277C26.0461 15.1889 25.91 15.0525 25.7795 14.9182C25.5043 14.6348 25.2513 14.3576 25.0594 14.086L25.0299 14.0866C24.9539 14.289 24.8589 14.4819 24.7469 14.6624C24.7076 14.7256 24.668 14.7845 24.6291 14.8391Z" fill="#fff"></path>
    <path d="M25.4485 13.8054C25.3303 13.6301 25.2517 13.4704 25.2135 13.3222C25.2367 13.1098 25.2377 12.8954 25.2163 12.6804C25.1983 12.5008 25.1706 12.2697 25.1539 12.1341L25.2996 12.0242C25.3344 11.9978 25.3686 11.9714 25.4022 11.9449C25.4147 11.9835 25.4288 12.0231 25.4446 12.0635C25.5363 12.2992 25.6881 12.5791 25.9148 12.8977C26.3683 13.535 27.1285 14.3372 28.3333 15.2639C29.777 16.3743 30.2543 17.4802 30.2371 18.4606C30.2334 18.6706 30.207 18.8764 30.1617 19.0769C29.7906 19.5596 29.3989 19.9784 28.9935 20.3505C29.0439 20.1068 29.0719 19.8697 29.0799 19.6389C29.119 18.5078 28.6754 17.5551 28.0815 16.7385C27.6173 16.1001 27.0511 15.5329 26.5493 15.0301C26.4144 14.895 26.2842 14.7645 26.1619 14.6386C25.8688 14.3369 25.622 14.0628 25.4485 13.8054Z" fill="#fff"></path>
    <path d="M25.8315 11.5698C25.834 11.6481 25.8564 11.7658 25.9183 11.9247C25.9955 12.1231 26.1291 12.3731 26.3403 12.6698C26.7625 13.2632 27.4877 14.0337 28.665 14.9393C30.1065 16.048 30.6858 17.193 30.7342 18.2619C30.9125 17.9856 31.0761 17.7085 31.2256 17.4312C31.2182 17.2495 31.1975 17.0688 31.163 16.8894C30.9553 15.8098 30.2414 14.7497 28.8307 13.788C27.6237 12.9653 26.9365 12.1946 26.5384 11.6087C26.4129 11.4241 26.3167 11.2586 26.2422 11.1166C26.122 11.2685 25.9857 11.4199 25.8315 11.5698Z" fill="#fff"></path>
    <path d="M26.597 10.7323C26.5838 10.7034 26.5719 10.6764 26.5611 10.6514C26.7042 10.4071 26.8102 10.1639 26.8865 9.92573C27.0461 10.1279 27.2592 10.3682 27.5316 10.6392C28.0875 11.192 28.9 11.8824 30.0349 12.6523C31.33 13.5309 31.8524 14.6717 32.0074 15.6347C31.8957 15.967 31.7659 16.3011 31.6168 16.6359C31.3425 15.4977 30.5551 14.4118 29.1396 13.4469C27.9811 12.6572 27.3354 11.9274 26.9691 11.3883C26.7858 11.1186 26.6712 10.8948 26.597 10.7323Z" fill="#fff"></path>
    <path d="M27.0276 9.28113C27.1195 9.46136 27.3875 9.83586 27.9084 10.354C28.4417 10.8844 29.2307 11.556 30.3429 12.3106C31.3855 13.0178 31.9709 13.8789 32.2749 14.7052C32.457 13.9482 32.5494 13.2064 32.5682 12.494C32.2928 11.8824 31.5038 10.9397 29.787 10.2408C28.6626 9.78304 27.839 9.24079 27.2751 8.75727C27.1924 8.68636 27.1149 8.61638 27.0426 8.54781C27.0604 8.77674 27.0591 9.02318 27.0276 9.28113Z" fill="#fff"></path>
    <path d="M27.6265 8.4487C27.2178 8.09827 26.9724 7.79548 26.8551 7.60462C26.8046 7.44587 26.7447 7.28778 26.6758 7.1308C26.8091 7.0807 26.9363 7.02705 27.0577 6.97017C27.5084 7.30262 28.3282 7.81421 30.0119 8.39538C30.9425 8.7166 31.5132 9.20065 31.8427 9.73459C32.1363 10.2102 32.2452 10.7368 32.2317 11.2426C31.7293 10.7544 31.0041 10.2571 29.9994 9.84809C28.9275 9.4117 28.1508 8.89818 27.6265 8.4487Z" fill="#fff"></path>
    <path d="M26.4797 6.7317C27.9998 6.15934 28.6035 5.0903 28.619 4.13804C28.6354 3.12654 28.0085 2.3247 27.183 2.23372C26.8137 2.19302 26.4401 2.35509 25.8948 2.75672C25.6368 2.94677 25.3547 3.17897 25.0273 3.44857L24.9899 3.47937C24.7204 3.70121 24.4228 3.94561 24.0897 4.2058C24.2339 4.29965 24.3742 4.40552 24.515 4.51699C24.8548 4.03032 25.7648 3.53378 27.5505 3.63638C27.6883 3.6443 27.7926 3.74762 27.7835 3.86715C27.7743 3.98668 27.6552 4.07717 27.5175 4.06925C25.6653 3.96283 25.0436 4.53401 24.8945 4.8266C24.9173 4.84601 24.9399 4.8655 24.9623 4.88507C25.368 4.78054 25.8616 4.75922 26.3269 4.78224C26.8491 4.80807 27.3671 4.89146 27.7369 4.99841C27.8679 5.03629 27.9387 5.15913 27.895 5.27278C27.8514 5.38643 27.7098 5.44785 27.5788 5.40997C27.2583 5.31728 26.7851 5.23943 26.2984 5.21535C25.9625 5.19874 25.6347 5.20853 25.3545 5.25088C25.8204 5.71639 26.1991 6.21568 26.4797 6.7317Z" fill="#fff"></path>
    <path d="M24.6457 3.16468C24.3466 3.4109 24.0176 3.68103 23.6455 3.96857C23.5925 3.94695 23.5386 3.92746 23.4835 3.91034C23.4185 3.89016 23.3531 3.8734 23.2868 3.86011C23.3904 3.76928 23.4947 3.67235 23.5997 3.57198C23.7362 3.44157 23.874 3.30524 24.0145 3.16634C24.366 2.81869 24.7341 2.45467 25.1385 2.1258C25.3522 1.95199 25.5796 1.78679 25.8189 1.64311C26.8013 1.05346 28.0508 1.41373 28.8369 2.24727C30.1352 3.62385 29.6807 4.73314 29.2379 5.73214C29.7845 5.80176 30.3645 6.19549 30.8848 6.83333C30.524 6.64382 30.1492 6.50327 29.7853 6.40109C29.2217 6.24289 28.6762 6.17434 28.2338 6.15969C28.8353 5.55289 29.1079 4.82798 29.119 4.14415C29.1372 3.02391 28.4341 1.9343 27.246 1.80336C26.6457 1.7372 26.123 2.01959 25.5712 2.42601C25.3023 2.62406 25.0111 2.86384 24.6886 3.1294L24.6457 3.16468Z" fill="#fff"></path>
    <path d="M29.6313 6.81384C29.9949 6.9159 30.3646 7.0582 30.714 7.25203C31.3368 7.59753 31.76 8.20681 32.0024 8.87652C32.0569 9.02687 32.1081 9.18135 32.1559 9.33966C31.7555 8.78977 31.1248 8.31262 30.1968 7.99229C28.7167 7.48139 27.9428 7.03321 27.5067 6.72941C27.572 6.6895 27.6352 6.64852 27.6962 6.60657C28.096 6.56559 28.8398 6.59164 29.6313 6.81384Z" fill="#fff"></path>
    <path d="M21.8217 8.04929L22.6388 10.4972C22.6419 10.5065 22.645 10.5158 22.6481 10.525L22.6388 10.4972C22.4132 9.80952 22.4874 9.14556 22.5846 8.68572C22.9196 8.71511 23.164 8.69305 23.3944 8.64203C24.0021 8.50742 24.4074 8.04048 24.7934 7.59585C24.8508 7.52974 24.9077 7.46409 24.9649 7.40013C25.0433 7.3123 25.1353 7.22112 25.2448 7.12114C25.0684 7.14882 24.8959 7.17413 24.7267 7.19896C23.6803 7.35251 22.7592 7.48766 21.8217 8.04929Z" fill="#fff"></path>
</svg>